#N canvas 0 0 1888 1090 12;
#X msg 52 88 \; pd dsp \$1;
#X obj 364 72 bng 15 250 50 0 empty empty empty 17 7 0 10 -258113 -1
-1;
#X obj 364 96 openpanel;
#N canvas 0 50 450 250 (subpatch) 0;
#X array channelL 1.67667e+006 float 2;
#X coords 0 1 1.67667e+006 -1 200 140 1;
#X restore 1127 60 graph;
#N canvas 0 50 450 250 (subpatch) 0;
#X array channelR 1.67667e+006 float 2;
#X coords 0 1 1.67667e+006 -1 200 140 1;
#X restore 1130 221 graph;
#X obj 364 148 soundfiler;
#X obj 364 229 expr 44100 / $f1;
#X obj 365 421 *~;
#X obj 367 590 *~;
#X obj 411 591 *~;
#X obj 443 195 s samplesize;
#X floatatom 391 256 5 0 0 0 - - -;
#X obj 651 153 metro 120;
#X obj 729 107 hsl 128 15 50 500 0 0 empty empty granular_rate -2 -8
0 10 -262144 -1 -1 0 1;
#X floatatom 651 205 5 0 0 0 - - -;
#X floatatom 651 256 5 0 0 0 - - -;
#X obj 654 285 hsl 128 15 0 1 0 0 empty empty empty -2 -8 0 10 -262144
-1 -1 12471 1;
#X obj 409 448 s~ progressbar;
#X obj 251 498 tabread4~ channelL;
#X obj 395 498 tabread4~ channelR;
#X obj 1056 396 r~ progressbar;
#X obj 1181 423 metro 50;
#X obj 1131 456 snapshot~;
#X floatatom 1131 482 5 0 0 0 - - -;
#X obj 1131 537 /;
#X obj 1149 508 r samplesize;
#X floatatom 1131 563 5 0 0 0 - - -;
#X obj 1131 606 s progress;
#X obj 1214 588 hsl 128 15 0 1 0 0 empty empty empty -2 -8 0 10 -262144
-1 -1 0 1;
#X obj 809 153 r jitbang;
#X obj 892 149 hsl 128 15 0.01 1 0 1 empty empty playhead_location
-2 -8 0 10 -262144 -1 -1 0 1;
#X floatatom 889 188 5 0 0 0 - - -;
#X obj 889 213 -;
#X floatatom 889 239 5 0 0 0 - - -;
#X obj 943 215 +;
#X obj 964 188 hsl 128 15 0 1 0 0 empty empty jit_range -2 -8 0 10
-262144 -1 -1 0 1;
#X obj 981 209 bang;
#X obj 1015 209 s jitbang;
#X floatatom 943 238 5 0 0 0 - - -;
#X msg 364 122 read -resize \$1 channelL channelR;
#X obj 634 528 vsl 50 70 0.01 1 1 0 empty empty Volum 0 -9 0 10 -258113
-1 -1 0 1;
#X obj 410 410 r samplesize;
#X floatatom 445 172 5 0 0 0 - - -;
#X obj 368 630 dac~;
#X text 45 39 Av/På;
#X obj 717 55 r granrate;
#X obj 1034 147 r sspeed;
#X obj 911 101 r playloc;
#X obj 367 366 phasor~;
#X obj 651 179 random 1000;
#X obj 651 230 / 1000;
#X obj 856 314 clip, f 5;
#X obj 545 496 vline~;
#X msg 545 464 0 3 \, 1 3 5;
#X floatatom 738 145 5 0 0 0 - - -;
#X obj 750 175 - 5;
#X obj 748 215 delay;
#X obj 747 243 s smooth;
#X obj 545 431 r smooth;
#X obj 1181 395 loadbang;
#X msg 172 275 0;
#X msg 251 315 0;
#X obj 171 380 hsl 150 15 -0.114583 0.114583 0 0 empty speedy empty
-2 -8 0 10 -262144 -1 -1 0 1;
#X floatatom 167 438 15 0 0 0 - - -;
#X obj 167 91 r speed_control;
#X obj 237 124 * -1;
#X msg 237 244 set \$1;
#X msg 167 244 set \$1;
#X text 106 275 forwards;
#X text 285 315 backwards;
#X obj 182 161 pack f f;
#X msg 182 193 \; speedy range \$2 \$1;
#X text 213 355 speed (-1 to 1);
#X obj 647 94 loadbang;
#X obj 647 123 t b b;
#X obj 370 552 *~;
#X obj 414 552 *~;
#X obj 803 191 r progress;
#X floatatom 803 216 5 0 0 0 - - -;
#X obj 51 65 tgl 15 0 empty empty empty 17 7 0 10 -258113 -1 -1 0 1
;
#X text 357 46 Last inn Sample;
#X text 611 488 Synth Volum;
#X obj 851 372 s granul;
#X obj 413 335 r granul;
#X obj 520 644 adc~;
#X connect 1 0 2 0;
#X connect 2 0 39 0;
#X connect 5 0 6 0;
#X connect 5 0 42 0;
#X connect 6 0 11 0;
#X connect 6 0 48 0;
#X connect 7 0 17 0;
#X connect 7 0 18 0;
#X connect 7 0 19 0;
#X connect 8 0 43 0;
#X connect 9 0 43 1;
#X connect 12 0 49 0;
#X connect 12 0 56 0;
#X connect 13 0 12 1;
#X connect 13 0 54 0;
#X connect 14 0 50 0;
#X connect 15 0 16 0;
#X connect 15 0 51 0;
#X connect 18 0 75 0;
#X connect 19 0 76 0;
#X connect 20 0 22 0;
#X connect 21 0 22 0;
#X connect 22 0 23 0;
#X connect 23 0 24 0;
#X connect 24 0 26 0;
#X connect 25 0 24 1;
#X connect 26 0 27 0;
#X connect 26 0 28 0;
#X connect 29 0 31 0;
#X connect 30 0 31 0;
#X connect 31 0 32 0;
#X connect 31 0 34 0;
#X connect 32 0 33 0;
#X connect 33 0 51 1;
#X connect 34 0 38 0;
#X connect 35 0 36 0;
#X connect 35 0 34 1;
#X connect 35 0 32 1;
#X connect 36 0 37 0;
#X connect 38 0 51 2;
#X connect 39 0 5 0;
#X connect 40 0 8 1;
#X connect 40 0 9 1;
#X connect 41 0 7 1;
#X connect 42 0 10 0;
#X connect 45 0 13 0;
#X connect 46 0 35 0;
#X connect 47 0 30 0;
#X connect 48 0 7 0;
#X connect 49 0 14 0;
#X connect 50 0 15 0;
#X connect 51 0 82 0;
#X connect 52 0 76 1;
#X connect 52 0 75 1;
#X connect 53 0 52 0;
#X connect 54 0 55 0;
#X connect 55 0 56 1;
#X connect 56 0 57 0;
#X connect 58 0 53 0;
#X connect 59 0 21 0;
#X connect 60 0 62 0;
#X connect 61 0 62 0;
#X connect 62 0 63 0;
#X connect 63 0 48 0;
#X connect 64 0 65 0;
#X connect 64 0 67 0;
#X connect 64 0 70 0;
#X connect 65 0 66 0;
#X connect 65 0 70 1;
#X connect 66 0 61 0;
#X connect 67 0 60 0;
#X connect 70 0 71 0;
#X connect 73 0 74 0;
#X connect 74 0 12 0;
#X connect 74 1 13 0;
#X connect 75 0 8 0;
#X connect 76 0 9 0;
#X connect 77 0 78 0;
#X connect 79 0 0 0;
#X connect 83 0 48 1;
#X connect 84 0 43 0;
#X connect 84 1 43 1;
