#N canvas 1912 -8 1904 986 12;
#X obj 229 292 gemhead;
#X obj 84 141 gemwin;
#X msg 57 107 create;
#X msg 138 109 destroy;
#X obj 203 107 tgl 31 0 empty empty empty 17 7 0 10 -258049 -1 -1 0
1;
#X floatatom 306 350 2 0 0 0 - - -, f 2;
#X floatatom 345 350 2 0 0 0 - - -, f 2;
#X obj 581 143 tgl 15 0 empty empty empty 17 7 0 10 -258049 -1 -1 1
1;
#X obj 581 163 metro;
#X obj 581 214 counter;
#X msg 637 186 359;
#X msg 623 161 0;
#X obj 334 439 vradio 11 1 0 11 empty empty action -10 -6 0 8 -262144
-1 -1 0;
#X obj 1500 952 int;
#X obj 1555 952 int;
#X floatatom 1555 975 3 0 0 0 - - -, f 3;
#X floatatom 1500 975 3 0 0 0 - - -, f 3;
#X obj 1570 66 semestergui~;
#X floatatom 406 369 5 0 100 0 - - -, f 5;
#X obj 406 390 / 100;
#X msg 406 412 K1 \$1;
#X floatatom 406 434 5 0 100 0 - - -, f 5;
#X obj 406 455 / 100;
#X floatatom 406 499 5 0 100 0 - - -, f 5;
#X obj 406 520 / 100;
#X floatatom 454 369 5 0 100 0 - - -, f 5;
#X obj 454 390 / 100;
#X floatatom 454 434 5 0 100 0 - - -, f 5;
#X obj 454 455 / 100;
#X floatatom 454 499 5 0 100 0 - - -, f 5;
#X obj 454 522 / 100;
#X msg 454 412 D1 \$1;
#X msg 454 477 D2 \$1;
#X msg 454 542 D3 \$1;
#X msg 406 542 K3 \$1;
#X msg 406 477 K2 \$1;
#X obj 365 481 t a;
#X obj 365 421 t a;
#X obj 365 541 t a;
#X msg 101 78 dimen 1920 1200;
#X obj 1449 757 dac~;
#X obj 229 523 t a b;
#X obj 229 379 rotateXYZ 135 0 0;
#X obj 1551 765 env~;
#X floatatom 1584 833 5 0 0 0 - - -, f 5;
#X floatatom 346 599 5 0 0 0 - - -, f 5;
#X floatatom 267 350 2 0 0 0 - - -, f 2;
#X obj 1036 139 gemhead;
#X obj 1036 300 part_killold;
#X floatatom 1200 201 3 0 0 0 - - -, f 3;
#X floatatom 1237 201 3 0 0 0 - - -, f 3;
#X floatatom 1280 201 3 0 0 0 - - -, f 3;
#X floatatom 1323 201 3 0 0 0 - - -, f 3;
#X obj 1237 229 t b f;
#X obj 1280 229 t b f;
#X obj 1323 229 t b f;
#X obj 1238 276 pack f f f f;
#X obj 246 625 newWave 30 10;
#X msg 951 478 draw points;
#X floatatom 1121 193 3 0 0 0 - - -, f 3;
#X msg 1121 219 speed \$1;
#X floatatom 1390 952 4 0 0 0 - - -, f 4;
#X obj 1584 809 / 1000;
#X floatatom 1096 164 2 0 0 0 - - -, f 2;
#X floatatom 1076 164 2 0 0 0 - - -, f 2;
#X floatatom 1056 164 2 0 0 0 - - -, f 2;
#X obj 1036 270 part_velocity sphere;
#X obj 1519 809 / 100;
#X floatatom 1519 833 5 0 0 0 - - -, f 5;
#X floatatom 1076 519 2 0 0 0 - - -, f 2;
#X obj 1434 1007 moses 50, f 9;
#X obj 1459 809 / 10;
#X floatatom 1459 833 5 0 0 0 - - -, f 5;
#X obj 498 267 gemhead;
#X obj 546 678 part_orbitpoint;
#X obj 1036 544 sphere, f 12;
#X obj 546 484 part_velocity sphere 0 0.2 1 0.2;
#X obj 546 370 rotateXYZ;
#X floatatom 524 307 5 0 0 0 - - -, f 5;
#X floatatom 581 307 5 0 0 0 - - -, f 5;
#X floatatom 638 307 5 0 0 0 - - -, f 5;
#X obj 163 555 loadbang;
#X obj 951 447 loadbang;
#X obj 275 574 loadbang;
#X msg 455 744 draw line;
#X obj 456 718 loadbang;
#X obj 581 106 loadbang;
#X floatatom 658 386 2 0 0 0 - - -, f 2;
#X msg 658 409 speed \$1;
#X obj 1036 198 rotateXYZ;
#X floatatom 1138 495 2 0 0 0 - - -, f 2;
#X obj 102 52 loadbang;
#X msg 87 544 noise 1;
#X obj 87 525 bng 15 250 50 0 empty empty empty 17 7 0 10 -262144 -1
-1;
#X obj 1390 922 fiddle~ 1024 1 29 3, f 32;
#X obj 1662 961 unpack;
#X floatatom 1662 989 3 0 0 0 - - -, f 3;
#X floatatom 1701 988 0 0 0 0 - - -;
#X obj 1662 922 route 1 2 3 4;
#X obj 1745 961 unpack;
#X floatatom 1745 989 0 0 0 0 - - -;
#X floatatom 1784 988 0 0 0 0 - - -;
#X obj 1828 961 unpack;
#X floatatom 1828 989 0 0 0 0 - - -;
#X floatatom 1867 988 0 0 0 0 - - -;
#X obj 1662 1015 / 100;
#X obj 1745 1015 / 100;
#X obj 1828 1015 / 100;
#X floatatom 1662 1040 5 0 0 0 - - -, f 5;
#X floatatom 1745 1040 5 0 0 0 - - -, f 5;
#X floatatom 1828 1040 5 0 0 0 - - -, f 5;
#X obj 1445 952 s fbang;
#X obj 87 500 r fbang;
#X obj 1121 164 r env1000;
#X obj 1323 168 r env1000;
#X obj 1459 862 s env10;
#X obj 1519 862 s env100;
#X obj 1584 862 s env1000;
#X obj 658 339 r env100;
#X obj 546 621 part_killold 20;
#X obj 663 620 loadbang;
#X obj 229 321 translateXYZ;
#X obj 1076 495 / 10;
#X obj 1390 975 s fpitch;
#X obj 606 774 r fpitch;
#X floatatom 606 822 2 0 0 0 - - -, f 2;
#X obj 606 798 / 20;
#X obj 346 572 r env100;
#X msg 163 581 draw line;
#X obj 1036 413 alpha;
#X obj 747 119 gemhead;
#X obj 876 132 vsl 15 128 0 1 0 0 empty empty empty 0 -9 0 10 -258113
-1 -1 4939 1;
#X obj 899 132 vsl 15 128 0 1 0 0 empty empty empty 0 -9 0 10 -4034
-1 -1 12700 1;
#X obj 929 132 vsl 15 128 0 1 0 0 empty empty empty 0 -9 0 10 -4160
-1 -1 0 1;
#X obj 746 232 colorRGB;
#X obj 1662 1094 s R;
#X obj 1745 1094 s G;
#X obj 1828 1094 s B;
#X obj 869 85 r R;
#X obj 899 85 r G;
#X obj 928 85 r B;
#X obj 746 172 alpha;
#X obj 876 132 vsl 15 128 0 1 0 0 empty empty empty 0 -9 0 10 -258113
-1 -1 4939 1;
#X obj 899 133 vsl 15 128 0 1 0 0 empty empty empty 0 -9 0 10 -4034
-1 -1 12700 1;
#X obj 928 132 vsl 15 128 0 1 0 0 empty empty empty 0 -9 0 10 -4160
-1 -1 0 1;
#X obj 746 232 colorRGB;
#X obj 1662 1094 s R;
#X obj 1745 1094 s G;
#X obj 1828 1094 s B;
#X obj 870 85 r R;
#X obj 899 85 r G;
#X obj 928 85 r B;
#X msg 806 137 auto \$1;
#X obj 806 117 tgl 11 0 empty empty empty 0 -6 0 8 -262144 -1 -1 0
1;
#X obj 802 200 hsl 50 15 0 1 0 0 empty empty empty -2 -8 0 10 -262144
-1 -1 0 1;
#X obj 802 172 r env100;
#X obj 658 363 / 2;
#X obj 1662 1066 / 15;
#X obj 1745 1066 / 15;
#X obj 1828 1066 / 15;
#X obj 546 751 part_render;
#X obj 546 586 part_targetcolor, f 18;
#X obj 674 563 hsl 50 15 0 1 0 0 empty empty empty -2 -8 0 10 -262144
-1 -1 2597 1;
#X obj 607 524 loadbang;
#X obj 674 538 / 100;
#X text 746 91 Bakgrunn;
#X text 234 266 Bølge;
#X text 495 242 Rektangel;
#X text 1057 115 Dots;
#X msg 275 599 2;
#X floatatom 400 287 2 0 0 0 - - -, f 2;
#X obj 546 717 translateXYZ;
#X obj 546 455 part_source;
#X obj 546 418 part_head 10;
#X msg 310 254 -1, f 2;
#X msg 359 251 1, f 1;
#X obj 332 223 loadbang;
#X obj 670 682 loadbang;
#X msg 597 651 -1 0 1;
#X obj 546 786 cube;
#X msg 648 652 0.4;
#X obj 1036 242 part_head;
#X msg 1045 383 auto \$1;
#X obj 1045 359 tgl 15 0 empty empty empty 17 7 0 10 -262144 -1 -1
1 1;
#X obj 854 629 gemhead;
#X obj 854 706 translateXYZ;
#X obj 854 787 part_killold;
#X obj 854 893 alpha;
#X msg 912 892 auto \$1;
#X obj 912 872 tgl 11 0 empty empty empty 0 -6 0 8 -262144 -1 -1 1
1;
#X obj 854 679 rotateXYZ;
#X floatatom 894 654 2 0 0 0 - - -, f 2;
#X floatatom 914 654 2 0 0 0 - - -, f 2;
#X floatatom 874 654 2 0 0 0 - - -, f 2;
#X msg 613 135 50;
#X obj 854 922 part_render;
#X obj 1045 335 loadbang;
#X obj 854 848 part_gravity;
#X msg 935 818 0 0 0;
#X msg 769 967 draw points;
#X msg 670 707 -8;
#X obj 854 760 part_source 30;
#X obj 854 733 part_head 30;
#X msg 607 553 1 1 0;
#X msg 893 973 6;
#X obj 893 948 loadbang;
#X obj 769 941 loadbang;
#X obj 746 259 cube 16;
#X obj 1360 410 test_sampler;
#X obj 581 267 +;
#X obj 1539 1007 moses 50, f 9;
#X obj 674 515 r mosaM;
#X obj 1415 1037 s mospL;
#X obj 1474 1037 s mospM;
#X obj 1539 1037 s mosaL;
#X obj 1599 1037 s mosaM;
#X obj 1076 471 r mospM;
#X obj 1138 471 r mosaM;
#X obj 1096 139 r mosaM;
#X text 856 601 Dots 2;
#X obj 16 19 loadbang;
#X obj 1036 447 part_render;
#X msg 16 48 \; pd dsp 1;
#X obj 854 998 circle;
#X obj 946 864 loadbang;
#X connect 0 0 121 0;
#X connect 2 0 1 0;
#X connect 3 0 1 0;
#X connect 4 0 1 0;
#X connect 5 0 42 2;
#X connect 6 0 42 3;
#X connect 7 0 8 0;
#X connect 8 0 9 0;
#X connect 9 0 209 0;
#X connect 10 0 9 4;
#X connect 11 0 9 3;
#X connect 12 0 57 3;
#X connect 13 0 16 0;
#X connect 14 0 15 0;
#X connect 15 0 210 0;
#X connect 16 0 70 0;
#X connect 17 0 40 0;
#X connect 17 0 40 1;
#X connect 17 0 43 0;
#X connect 17 0 94 0;
#X connect 18 0 19 0;
#X connect 19 0 20 0;
#X connect 20 0 37 0;
#X connect 21 0 22 0;
#X connect 22 0 35 0;
#X connect 23 0 24 0;
#X connect 24 0 34 0;
#X connect 25 0 26 0;
#X connect 26 0 31 0;
#X connect 27 0 28 0;
#X connect 28 0 32 0;
#X connect 29 0 30 0;
#X connect 30 0 33 0;
#X connect 31 0 37 0;
#X connect 32 0 36 0;
#X connect 33 0 38 0;
#X connect 34 0 38 0;
#X connect 35 0 36 0;
#X connect 36 0 38 0;
#X connect 37 0 36 0;
#X connect 38 0 57 0;
#X connect 39 0 1 0;
#X connect 41 0 57 0;
#X connect 41 1 57 0;
#X connect 42 0 41 0;
#X connect 43 0 62 0;
#X connect 43 0 67 0;
#X connect 43 0 71 0;
#X connect 44 0 117 0;
#X connect 45 0 57 2;
#X connect 46 0 42 1;
#X connect 47 0 89 0;
#X connect 48 0 129 0;
#X connect 49 0 56 0;
#X connect 50 0 53 0;
#X connect 51 0 54 0;
#X connect 52 0 55 0;
#X connect 53 0 56 0;
#X connect 53 1 56 1;
#X connect 54 0 56 0;
#X connect 54 1 56 2;
#X connect 55 0 56 0;
#X connect 55 1 56 3;
#X connect 56 0 66 2;
#X connect 58 0 75 0;
#X connect 59 0 60 0;
#X connect 60 0 181 0;
#X connect 61 0 123 0;
#X connect 62 0 44 0;
#X connect 63 0 89 3;
#X connect 64 0 89 2;
#X connect 65 0 89 1;
#X connect 66 0 48 0;
#X connect 67 0 68 0;
#X connect 68 0 116 0;
#X connect 69 0 75 1;
#X connect 70 0 212 0;
#X connect 70 1 213 0;
#X connect 71 0 72 0;
#X connect 72 0 115 0;
#X connect 73 0 77 0;
#X connect 74 0 171 0;
#X connect 76 0 161 0;
#X connect 77 0 173 0;
#X connect 78 0 77 1;
#X connect 79 0 77 2;
#X connect 80 0 77 3;
#X connect 81 0 128 0;
#X connect 82 0 58 0;
#X connect 83 0 169 0;
#X connect 84 0 179 0;
#X connect 85 0 84 0;
#X connect 86 0 194 0;
#X connect 86 0 7 0;
#X connect 87 0 88 0;
#X connect 88 0 173 0;
#X connect 89 0 181 0;
#X connect 90 0 75 2;
#X connect 91 0 39 0;
#X connect 92 0 57 0;
#X connect 93 0 92 0;
#X connect 94 0 61 0;
#X connect 94 1 111 0;
#X connect 94 2 13 0;
#X connect 94 3 14 0;
#X connect 94 4 98 0;
#X connect 95 0 96 0;
#X connect 95 1 97 0;
#X connect 96 0 105 0;
#X connect 98 0 95 0;
#X connect 98 1 99 0;
#X connect 98 2 102 0;
#X connect 99 0 100 0;
#X connect 99 1 101 0;
#X connect 100 0 106 0;
#X connect 102 0 103 0;
#X connect 102 1 104 0;
#X connect 103 0 107 0;
#X connect 105 0 108 0;
#X connect 106 0 109 0;
#X connect 107 0 110 0;
#X connect 108 0 157 0;
#X connect 109 0 158 0;
#X connect 110 0 159 0;
#X connect 112 0 93 0;
#X connect 113 0 59 0;
#X connect 114 0 52 0;
#X connect 118 0 156 0;
#X connect 119 0 74 0;
#X connect 120 0 180 0;
#X connect 120 0 178 0;
#X connect 121 0 42 0;
#X connect 122 0 69 0;
#X connect 124 0 126 0;
#X connect 125 0 179 1;
#X connect 126 0 125 0;
#X connect 127 0 45 0;
#X connect 128 0 57 0;
#X connect 129 0 221 0;
#X connect 130 0 141 0;
#X connect 131 0 134 1;
#X connect 132 0 134 2;
#X connect 133 0 134 3;
#X connect 134 0 207 0;
#X connect 138 0 131 0;
#X connect 139 0 132 0;
#X connect 140 0 133 0;
#X connect 141 0 145 0;
#X connect 142 0 145 1;
#X connect 143 0 145 2;
#X connect 144 0 145 3;
#X connect 145 0 207 0;
#X connect 149 0 142 0;
#X connect 150 0 143 0;
#X connect 151 0 144 0;
#X connect 152 0 141 0;
#X connect 153 0 152 0;
#X connect 154 0 145 4;
#X connect 155 0 154 0;
#X connect 156 0 87 0;
#X connect 157 0 146 0;
#X connect 157 0 135 0;
#X connect 158 0 147 0;
#X connect 158 0 136 0;
#X connect 159 0 137 0;
#X connect 159 0 148 0;
#X connect 160 0 179 0;
#X connect 161 0 119 0;
#X connect 162 0 161 2;
#X connect 163 0 203 0;
#X connect 164 0 162 0;
#X connect 169 0 57 1;
#X connect 170 0 121 3;
#X connect 171 0 160 0;
#X connect 172 0 76 0;
#X connect 173 0 172 0;
#X connect 174 0 121 1;
#X connect 175 0 121 2;
#X connect 176 0 174 0;
#X connect 176 0 175 0;
#X connect 177 0 200 0;
#X connect 178 0 74 1;
#X connect 180 0 74 2;
#X connect 181 0 66 0;
#X connect 182 0 129 0;
#X connect 183 0 182 0;
#X connect 184 0 190 0;
#X connect 185 0 202 0;
#X connect 186 0 197 0;
#X connect 187 0 195 0;
#X connect 188 0 187 0;
#X connect 189 0 188 0;
#X connect 190 0 185 0;
#X connect 191 0 190 2;
#X connect 192 0 190 3;
#X connect 193 0 190 1;
#X connect 194 0 8 1;
#X connect 195 0 223 0;
#X connect 196 0 183 0;
#X connect 197 0 187 0;
#X connect 198 0 197 1;
#X connect 199 0 223 0;
#X connect 200 0 171 3;
#X connect 201 0 186 0;
#X connect 202 0 201 0;
#X connect 203 0 161 1;
#X connect 204 0 223 1;
#X connect 205 0 204 0;
#X connect 206 0 199 0;
#X connect 208 0 40 0;
#X connect 208 0 40 1;
#X connect 208 0 43 0;
#X connect 208 0 94 0;
#X connect 209 0 78 0;
#X connect 209 0 79 0;
#X connect 209 0 80 0;
#X connect 210 0 214 0;
#X connect 210 1 215 0;
#X connect 211 0 164 0;
#X connect 216 0 122 0;
#X connect 217 0 90 0;
#X connect 218 0 63 0;
#X connect 220 0 222 0;
#X connect 221 0 75 0;
#X connect 224 0 189 0;
