#N canvas 0 0 1888 1090 12;
#X obj 210 129 bng 30 250 50 0 empty empty empty 17 7 0 10 -258113
-1 -1;
#X obj 664 144 openpanel;
#N canvas 0 50 450 250 (subpatch) 0;
#X array channelL 470400 float 0 black black;
#X coords 0 1 470399 -1 200 140 1;
#X restore 119 351 graph;
#N canvas 0 50 450 250 (subpatch) 0;
#X array channelR 470400 float 0 black black;
#X coords 0 1 470399 -1 200 140 1;
#X restore 118 510 graph;
#X obj 664 196 soundfiler;
#X obj 664 277 expr 44100 / $f1;
#X obj 665 469 *~;
#X obj 667 638 *~;
#X obj 711 639 *~;
#X obj 743 243 s samplesize;
#X floatatom 691 304 5 0 0 0 - - -, f 5;
#X obj 951 201 metro 120;
#X obj 121 179 hsl 128 15 50 500 0 0 empty empty granular_rate -2 -8
0 10 -258113 -1 -1 1050 1;
#X floatatom 951 253 5 0 0 0 - - -, f 5;
#X floatatom 951 304 5 0 0 0 - - -, f 5;
#X obj 121 258 hsl 128 15 0 1 0 0 empty empty empty -2 -8 0 10 -258113
-1 -1 11062 1;
#X obj 709 496 s~ progressbar;
#X obj 551 546 tabread4~ channelL;
#X obj 695 546 tabread4~ channelR;
#X obj 893 417 r~ progressbar;
#X obj 1018 444 metro 50;
#X obj 968 477 snapshot~;
#X floatatom 968 503 5 0 0 0 - - -, f 5;
#X obj 968 558 /;
#X obj 986 529 r samplesize;
#X floatatom 968 584 5 0 0 0 - - -, f 5;
#X obj 968 627 s progress;
#X obj 145 665 hsl 128 15 0 1 0 0 empty empty empty -2 -8 0 10 -258049
-1 -1 11067 1;
#X obj 1109 201 r jitbang;
#X obj 121 209 hsl 128 15 0.01 1 0 1 empty empty playhead_location
-2 -8 0 10 -258113 -1 -1 7600 1;
#X floatatom 1189 236 5 0 0 0 - - -, f 5;
#X obj 1189 261 -;
#X floatatom 1189 287 5 0 0 0 - - -, f 5;
#X obj 1243 263 +;
#X obj 121 239 hsl 128 15 0 1 0 0 empty empty jit_range -2 -8 0 10
-258113 -1 -1 12700 1;
#X obj 1281 257 bang;
#X obj 1315 257 s jitbang;
#X floatatom 1243 286 5 0 0 0 - - -, f 5;
#X msg 664 170 read -resize \$1 channelL channelR;
#X obj 293 167 vsl 30 150 0 1 0 0 empty empty Volum 0 -9 0 10 -258113
-1 -1 0 1;
#X obj 710 458 r samplesize;
#X floatatom 745 220 5 0 0 0 - - -, f 5;
#X obj 1017 103 r granrate;
#X obj 1334 195 r sspeed;
#X obj 1211 149 r playloc;
#X obj 667 414 phasor~;
#X obj 951 227 random 1000;
#X obj 951 278 / 1000;
#X obj 1156 362 clip, f 5;
#X obj 845 544 vline~;
#X msg 845 512 0 3 \, 1 3 5;
#X floatatom 1038 193 5 0 0 0 - - -, f 5;
#X obj 1050 223 - 5;
#X obj 1048 263 delay;
#X obj 1047 291 s smooth;
#X obj 844 479 r smooth;
#X obj 1018 416 loadbang;
#X msg 472 323 0;
#X msg 551 363 0;
#X obj 121 294 hsl 128 15 -0.114583 0.114583 0 0 empty speedy speed
-2 -8 0 10 -258113 -1 -1 7850 1;
#X floatatom 467 486 15 0 0 0 - - -, f 15;
#X obj 467 139 r speed_control;
#X obj 537 172 * -1;
#X msg 537 292 set \$1;
#X msg 467 292 set \$1;
#X text 408 324 forwards;
#X text 478 360 backwards;
#X obj 482 209 pack f f;
#X msg 482 241 \; speedy range \$2 \$1;
#X obj 947 142 loadbang;
#X obj 947 171 t b b;
#X obj 670 600 *~;
#X obj 714 600 *~;
#X obj 1103 239 r progress;
#X floatatom 1103 264 5 0 0 0 - - -, f 5;
#X text 168 110 Last inn Sample;
#X obj 1158 391 s granul;
#X obj 713 383 r granul;
#X obj 672 683 outlet~;
#X obj 667 116 inlet;
#X obj 788 366 s indx;
#X connect 0 0 1 0;
#X connect 1 0 38 0;
#X connect 4 0 5 0;
#X connect 4 0 41 0;
#X connect 5 0 10 0;
#X connect 5 0 45 0;
#X connect 5 0 80 0;
#X connect 6 0 16 0;
#X connect 6 0 17 0;
#X connect 6 0 18 0;
#X connect 7 0 78 0;
#X connect 8 0 78 0;
#X connect 11 0 46 0;
#X connect 11 0 53 0;
#X connect 12 0 11 1;
#X connect 12 0 51 0;
#X connect 13 0 47 0;
#X connect 14 0 15 0;
#X connect 14 0 48 0;
#X connect 17 0 71 0;
#X connect 18 0 72 0;
#X connect 19 0 21 0;
#X connect 20 0 21 0;
#X connect 21 0 22 0;
#X connect 22 0 23 0;
#X connect 23 0 25 0;
#X connect 24 0 23 1;
#X connect 25 0 26 0;
#X connect 25 0 27 0;
#X connect 25 0 80 0;
#X connect 28 0 30 0;
#X connect 29 0 30 0;
#X connect 30 0 31 0;
#X connect 30 0 33 0;
#X connect 31 0 32 0;
#X connect 32 0 48 1;
#X connect 33 0 37 0;
#X connect 34 0 35 0;
#X connect 34 0 33 1;
#X connect 34 0 31 1;
#X connect 35 0 36 0;
#X connect 37 0 48 2;
#X connect 38 0 4 0;
#X connect 39 0 7 1;
#X connect 39 0 8 1;
#X connect 40 0 6 1;
#X connect 41 0 9 0;
#X connect 42 0 12 0;
#X connect 43 0 34 0;
#X connect 44 0 29 0;
#X connect 45 0 6 0;
#X connect 46 0 13 0;
#X connect 47 0 14 0;
#X connect 48 0 76 0;
#X connect 48 0 80 0;
#X connect 49 0 72 1;
#X connect 49 0 71 1;
#X connect 50 0 49 0;
#X connect 51 0 52 0;
#X connect 52 0 53 1;
#X connect 53 0 54 0;
#X connect 55 0 50 0;
#X connect 56 0 20 0;
#X connect 57 0 59 0;
#X connect 58 0 59 0;
#X connect 59 0 60 0;
#X connect 60 0 45 0;
#X connect 61 0 62 0;
#X connect 61 0 64 0;
#X connect 61 0 67 0;
#X connect 62 0 63 0;
#X connect 62 0 67 1;
#X connect 63 0 58 0;
#X connect 64 0 57 0;
#X connect 67 0 68 0;
#X connect 69 0 70 0;
#X connect 70 0 11 0;
#X connect 70 1 12 0;
#X connect 71 0 7 0;
#X connect 72 0 8 0;
#X connect 73 0 74 0;
#X connect 77 0 45 1;
#X connect 79 0 1 0;
#X coords 0 -1 1 1 240 600 2 103 100;
